<?xml version="1.0" encoding="utf-8"?>
<!-- Generator: Adobe Illustrator 26.4.1, SVG Export Plug-In . SVG Version: 6.00 Build 0)  -->
<svg version="1.1" id="Layer_1" xmlns="http://www.w3.org/2000/svg" xmlns:xlink="http://www.w3.org/1999/xlink" x="0px" y="0px"
	 viewBox="0 0 600 228" style="enable-background:new 0 0 600 228;" xml:space="preserve">
<style type="text/css">
	.st0{fill:#2484C6;}
</style>
<g id="Promoto_00000134959904999966113760000010743899372366884279_">
	<path class="st0" d="M94.77,134.63c-1.06-0.14-2.32-0.92-3.77-2.34c-1.48-1.38-3.02-2.97-4.61-4.77c-0.32-0.32-0.62-0.66-0.9-1.01
		c-0.14-0.18-0.3-0.35-0.48-0.53c-1.31,3.22-3.22,8.89-5.73,17.02c-2.51,8.17-4.67,16.32-6.47,24.45
		c-1.8,8.13-2.32,13.79-1.54,16.97c0.21,0.78-0.16,0.85-1.12,0.21c-0.99-0.63-2.23-1.75-3.71-3.34c-1.48-1.59-2.9-3.43-4.24-5.52
		c-1.34-2.05-2.28-4.13-2.81-6.26c-0.6-3.04,0-8.49,1.81-16.33c1.77-7.81,4.26-16.7,7.48-26.67c3.18-9.97,6.57-19.68,10.18-29.11
		c3.57-9.41,6.86-17.24,9.87-23.49c2.97-6.22,5.16-9.53,6.57-9.92c1.56-0.14,3.82,0.05,6.79,0.58c2.97,0.53,5.55,1.31,7.74,2.34
		c2.16,1.02,2.83,2.21,2.02,3.55c-1.2,1.8-3.52,6.19-6.95,13.15c-3.43,6.97-6.84,14-10.23,21.11c-3.4,7.11-5.62,11.81-6.68,14.11
		c-0.04,0.18-0.09,0.32-0.16,0.42c12.91,0.99,23.85-0.09,32.83-3.24c8.98-3.15,15.97-7.55,20.95-13.2
		c4.95-5.62,7.83-11.67,8.64-18.14c0.81-6.43-0.51-12.48-3.98-18.14c-3.46-5.62-9.11-10.02-16.92-13.2
		c-7.85-3.15-17.94-4.22-30.28-3.24c-9.97,0.99-19.04,3.54-27.21,7.64C63.66,61.8,56.68,66.56,50.92,72
		c-5.8,5.44-10.06,10.73-12.78,15.86c-2.76,5.13-3.67,9.26-2.76,12.41c0.71,1.87,1.5,3.23,2.39,4.08c0.92,0.85,1.82,1.5,2.7,1.96
		c0.6,0.32,1.13,0.65,1.59,1.01c0.5,0.39,0.87,0.88,1.12,1.48c0.28,0.88-0.51,1.26-2.39,1.12c-1.88-0.14-4.19-0.87-6.95-2.18
		c-2.79-1.31-5.37-3.2-7.74-5.67c-2.37-2.44-3.91-5.5-4.61-9.17c-0.78-5.87,0.42-11.45,3.61-16.76c3.15-5.3,7.19-10.02,12.14-14.16
		c4.95-4.14,9.74-7.39,14.37-9.76c11.28-5.8,22.75-9.51,34.42-11.14c11.63-1.59,22.27-1.43,31.92,0.48
		c11.07,2.26,20.01,6.17,26.83,11.72c6.82,5.55,11.56,11.97,14.21,19.25c2.62,7.32,3.22,14.74,1.8,22.27
		c-1.45,7.57-4.88,14.5-10.29,20.79c-5.44,6.29-12.82,11.23-22.12,14.8C119.06,133.93,107.85,135.34,94.77,134.63"/>
	<path class="st0" d="M196.49,181.54c-3.29,3.55-5.24,5.26-7.9,5.29c-2.91,0.02-5.04-0.96-8.97-2.95c-3.93-1.94-6.64-4.2-8.11-6.75
		c-0.91-2.16-1.08-4.82-0.52-7.98c0.52-3.11,1.39-6.32,2.6-9.6c1.17-3.29,2.32-6.23,3.44-8.82c0.43-1.08,0.82-2.01,1.17-2.79
		c0.22-0.52,0.41-0.99,0.58-1.43c0.39-1.13,0.52-1.78,0.39-1.95c-0.78-0.6-2.51-1.06-5.19-1.36c-2.6-0.31-5.43-0.93-8.5-1.88
		c-1,1.73-2.21,3.94-3.63,6.62l-0.39,0.65c-0.86,1.6-1.78,3.29-2.72,5.06c-0.17,0.35-0.37,0.69-0.58,1.04l-3.77-2.4
		c1.69-3.03,3.31-6.12,4.87-9.28c0.35-0.61,0.67-1.21,0.97-1.82c0.35-0.61,0.67-1.21,0.97-1.82c-2.51-1.48-4.39-3.7-5.64-6.68
		c-0.78-2.21-0.85-4.95-0.19-8.24c0.65-3.24,1.73-6.25,3.24-9.02c1.51-2.72,3.25-4.39,5.19-5c1.39-0.35,2.99-0.08,4.8,0.78
		c1.82,0.82,3.57,1.93,5.26,3.31c1.64,1.34,2.92,2.62,3.83,3.83c0.91,1.21,1.13,2.06,0.65,2.53c-1.55,1.3-3,3.05-4.35,5.25
		c-1.34,2.25-2.14,4.37-2.4,6.36c-0.3,1.99,0.35,3.29,1.94,3.89c2.03,0.52,4.31,0.97,6.82,1.36c2.72,0.43,5.4,1.02,8.04,1.75
		c0.91,0.3,2.06,1.19,3.44,2.66c1.34,1.47,2.42,3.16,3.25,5.06c0.78,1.9,0.78,3.61,0,5.13c-1.21,2.03-2.55,4.8-4.02,8.31
		c-1.47,3.55-2.62,7.01-3.44,10.38c-0.82,3.38-0.37,4.86,1.09,5.68c1.7,0.95,4.66,1.25,8.62,1.35"/>
	<path class="st0" d="M239.95,183.55c-7.44,0.09-12.98-1.51-16.61-4.8c-3.63-3.24-5.67-7.33-6.1-12.27
		c-0.47-4.89,0.39-9.73,2.6-14.53c2.16-4.8,5.34-8.61,9.54-11.42c4.2-2.81,9.15-3.81,14.86-2.99c3.07,0.65,5.58,1.54,7.53,2.66
		c1.94,1.13,3.26,2.18,3.96,3.18c0.65,0.99,0.67,1.49,0.06,1.49c-3.89,0-7.35,1.08-10.38,3.24c-3.07,2.12-5.58,4.78-7.53,7.98
		c-1.94,3.16-3.22,6.31-3.83,9.47c-0.65,3.2-0.5,5.89,0.46,8.05c0.95,2.21,2.81,3.31,5.58,3.31c3.98,0,7.49-1.17,10.51-3.5
		c3.03-2.34,5.52-5.28,7.46-8.82c1.9-3.55,3.1-7.27,3.57-11.16c0.43-3.89,0.02-7.46-1.24-10.71c-1.3-3.24-3.59-5.73-6.88-7.46
		c-3.29-1.78-7.77-2.23-13.44-1.36c1.21-4.63,4.04-7.64,8.5-9.02c4.46-1.34,9.15-1.06,14.08,0.84c4.93,1.9,8.71,5.43,11.35,10.58
		c2.68,5.15,2.75,11.92,0.2,20.31c-2.47,7.31-6.84,13.58-13.11,18.82C254.83,180.72,247.78,183.42,239.95,183.55"/>
	<path class="st0" d="M392.97,182.46c-2.21,1.9-2.75,4.5-5.93,4.35c-5.4-0.25-8.17-3.55-10.81-5.46c-2.64-1.9-4.33-4.11-5.06-6.62
		c-0.43-2.47-0.08-6.17,1.04-11.1c1.08-4.93,2.21-9,3.37-12.2c-0.22,0.3-0.6,0.8-1.17,1.49c-0.26,0.35-0.58,0.74-0.97,1.17
		c-0.65,0.82-1.34,1.68-2.08,2.6c-1.77,2.25-3.85,4.91-6.23,7.98c-3.42,4.37-6.49,8.42-9.21,12.14c-2.72,3.76-4.16,6.08-4.28,6.94
		c-0.04,0.91-0.61,1.21-1.69,0.91c-1.13-0.26-2.45-0.91-3.96-1.94c-1.56-1.04-2.99-2.23-4.28-3.57c-1.3-1.3-2.18-2.53-2.66-3.7
		c-0.26-1.21,0.19-3.77,1.36-7.66c1.17-3.85,2.53-7.83,4.09-11.94c1.08-2.9,1.97-5.23,2.66-7.01c0.26-0.69,0.5-1.32,0.71-1.88
		c0.09-0.22,0.15-0.41,0.19-0.58c-0.13,0.18-0.28,0.35-0.45,0.52c-0.52,0.65-1.25,1.55-2.21,2.72c-2.99,3.5-6.75,8.07-11.29,13.69
		c-4.55,5.62-8.59,10.94-12.13,15.96c-3.55,5.02-3.96,5.31-6.37,6.47c-0.98,0.48-7.28,1.53-9.19,0.92
		c-1.86-0.61,0.77,0.18-1.36-1.59c-2.12-1.78-6.24-3.95-7.23-6.33c-0.04-0.48,5.35-0.02,5.91-1.62c0.61-1.6,1.32-3.31,2.14-5.13
		c0.78-1.78,1.4-3.16,1.88-4.16c0.08-0.13,0.15-0.24,0.19-0.32c2.46-5.41,5.06-12.57,7.78-21.48c2.73-8.87,4.26-16.31,4.61-22.32
		c0.09-1.3,0.72-1.99,1.88-2.08c1.13-0.04,2.53,0.31,4.22,1.04c1.69,0.74,3.38,1.6,5.06,2.6c1.69,0.95,3.09,1.86,4.22,2.72
		c1.13,0.86,1.71,1.36,1.75,1.49c-0.04,1.69-0.76,4.74-2.14,9.15c-1.43,4.46-3.03,9.11-4.8,13.95c-1.77,4.84-3.24,8.71-4.41,11.62
		l25.95-31.21c0.35-0.52,1.09-0.54,2.21-0.07c1.08,0.52,2.29,1.3,3.63,2.34c1.34,1.08,2.55,2.18,3.63,3.31
		c1.13,1.17,1.84,2.14,2.14,2.92c0.13,0.56-0.16,1.88-0.85,3.96c-0.74,2.12-1.67,4.59-2.79,7.4c-1.08,2.86-2.18,5.63-3.31,8.31
		c-1.82,4.37-2.96,7.27-3.44,8.7l27.97-34.26c0.43-0.65,1.32-0.8,2.66-0.46c1.34,0.39,2.79,1.06,4.35,2.01
		c1.51,1,2.81,2.06,3.89,3.18c1.08,1.17,1.58,2.23,1.49,3.18c-0.17,0.86-0.84,2.9-2.01,6.1c-0.91,2.51-1.88,5.3-2.92,8.37
		c-1.08,3.11-1.99,6.1-2.72,8.95c-0.74,2.86-1.1,5.24-1.1,7.14c0,1.86,2.43,3.91,3.69,3.96c0.39,0,0.76-0.02,1.1-0.07"/>
	<path class="st0" d="M435.72,184.55c-7.44,0.09-12.98-1.51-16.61-4.8c-3.63-3.24-5.67-7.33-6.1-12.27
		c-0.47-4.89,0.39-9.73,2.6-14.53c2.16-4.8,5.34-8.61,9.54-11.42c4.2-2.81,9.15-3.81,14.86-2.99c3.07,0.65,5.58,1.54,7.53,2.66
		c1.94,1.13,3.26,2.18,3.96,3.18c0.65,0.99,0.67,1.49,0.06,1.49c-3.89,0-7.35,1.08-10.38,3.24c-3.07,2.12-5.58,4.78-7.53,7.98
		c-1.94,3.16-3.22,6.31-3.83,9.47c-0.65,3.2-0.5,5.89,0.46,8.05c0.95,2.21,2.81,3.31,5.58,3.31c3.98,0,7.49-1.17,10.51-3.5
		c3.03-2.34,5.52-5.28,7.46-8.82c1.9-3.55,3.09-7.27,3.57-11.16c0.43-3.89,0.02-7.46-1.24-10.71c-1.3-3.24-3.59-5.73-6.88-7.46
		c-3.29-1.78-7.77-2.23-13.44-1.36c1.21-4.63,4.04-7.64,8.5-9.02c4.46-1.34,9.15-1.06,14.08,0.84c4.93,1.9,8.72,5.43,11.35,10.58
		c2.68,5.15,2.75,11.92,0.19,20.31c-2.46,7.31-6.84,13.58-13.11,18.82C450.6,181.72,443.55,184.42,435.72,184.55"/>
	<path class="st0" d="M522.68,181.77c-3.77,5.24-10.9-0.59-15.44,1.79c-4.03,1.99-8.08-0.59-11.85-1.5
		c-3.81-0.91-6.59-0.53-8.66-5.12c-2.12-4.62-2.66-11.44-1.63-20.44c1.13-7.74,3.01-16.83,5.65-27.25
		c2.68-10.47,6.55-23.25,11.62-38.35c-14.49,0.13-30.11,0.84-46.85,2.14c2.99-2.21,9.06-4.15,18.23-5.84
		c9.13-1.69,19.4-2.96,30.82-3.83c2.16-7.09,4.11-12.95,5.84-17.58c1.73-4.63,3.05-7.23,3.96-7.79c4.93-2.72,9.63-4.56,14.08-5.52
		c4.5-0.91,8.07-1.25,10.71-1.04c2.68,0.26,3.78,0.76,3.31,1.49c-4.72,5.84-10.14,15.66-16.29,29.46c8.43-0.17,15.7,0.06,21.8,0.71
		c6.1,0.69,10.08,1.84,11.94,3.44c-0.35,1.69-1.47,3.31-3.38,4.87c-1.94,1.55-4.04,2.66-6.29,3.31c-2.29,0.65-4.13,0.43-5.52-0.65
		c-1.99-1.51-9.45-2.49-22.38-2.92c-8.52,20.51-14.84,37.94-18.95,52.3c-3.03,11.2-4.37,19.46-4.02,24.79
		c0.3,5.32,1.97,9.09,4.62,9.75c4,1,11.89,5.28,16,1"/>
	<path class="st0" d="M540.37,184.31c-7.44,0.09-12.98-1.51-16.61-4.8c-3.63-3.24-5.67-7.33-6.1-12.27
		c-0.47-4.89,0.39-9.73,2.6-14.53c2.16-4.8,5.34-8.61,9.54-11.42c4.2-2.81,9.15-3.81,14.86-2.99c3.07,0.65,5.58,1.54,7.53,2.66
		c1.94,1.13,3.26,2.18,3.96,3.18c0.65,0.99,0.67,1.49,0.06,1.49c-3.89,0-7.35,1.08-10.38,3.24c-3.07,2.12-5.58,4.78-7.53,7.98
		c-1.94,3.16-2.34,4-2.95,7.15c-0.65,3.2-0.5,5.88,0.46,8.04c0.95,2.21,2.81,3.31,5.58,3.31c3.98,0,7.48-1.17,10.51-3.51
		c3.03-2.33,4.63-2.96,6.58-6.5c1.9-3.55,3.09-7.27,3.57-11.16c0.43-3.89,0.02-7.46-1.24-10.71c-1.3-3.24-3.59-5.73-6.88-7.46
		c-3.29-1.78-7.77-2.23-13.44-1.36c1.21-4.63,4.04-7.64,8.5-9.02c4.46-1.34,9.15-1.06,14.08,0.84c4.93,1.9,8.72,5.43,11.35,10.58
		c2.68,5.15,2.75,11.92,0.19,20.31c-2.46,7.31-6.84,13.58-13.11,18.82C555.25,181.48,548.2,184.19,540.37,184.31"/>
	<rect x="188.08" y="178" class="st0" width="122.92" height="8.83"/>
	<path class="st0" d="M530,186.99l-143.89-0.17V178H555l-3,4C541,186,533.25,187,530,186.99z"/>
</g>
</svg>
